<?xml version="1.0" encoding="UTF-8"?>
<!-- Generated by Pixelmator Pro 3.6.13 -->
<svg width="1050" height="1000" viewBox="0 0 1050 1000" xmlns="http://www.w3.org/2000/svg">
    <path id="Path" fill="#180731" stroke="none" d="M 326.994934 800.998779 C 302.27301 782.310547 277.836395 763.83252 253.428665 745.316467 C 211.257141 713.324463 169.088379 681.328735 126.948578 649.294922 C 105.21537 632.773804 83.601883 616.094604 61.79306 599.674438 C 58.331921 597.068481 56.9645 594.173523 56.967846 589.985962 C 57.027767 514.991028 56.951683 439.99585 57.194935 365.001709 C 57.2066 361.405884 59.192589 357.292358 61.438194 354.306702 C 94.666946 310.127563 128.111359 266.110596 161.470535 222.02948 C 181.765869 195.21106 201.965637 168.32019 222.275879 141.513062 C 244.093277 112.716614 266.021698 84.004272 287.804749 55.181946 C 290.106415 52.136475 291.782379 51.424561 294.920837 54.258545 C 309.490265 67.414795 324.22406 80.389282 338.924988 93.399536 C 355.372437 107.955383 371.882263 122.440857 388.301392 137.028503 C 404.723206 151.618591 421.409821 165.933838 437.368683 181.016724 C 465.68631 207.779968 493.591248 234.981384 521.522644 262.14978 C 524.755615 265.294434 526.648132 264.988464 529.627197 261.973633 C 547.197327 244.192139 564.641174 226.268799 582.706055 208.998474 C 597.613586 194.746643 613.303223 181.311523 628.682251 167.554749 C 641.581177 156.016479 654.524109 144.527222 667.462158 133.032715 C 684.62793 117.782043 701.809143 102.548645 718.981506 87.305359 C 731.299255 76.371338 743.69812 65.526306 755.873169 54.435608 C 759.150696 51.449951 760.864685 52.083374 763.330383 55.366028 C 783.729126 82.524353 804.276489 109.571045 824.777283 136.652771 C 858.341675 180.991577 891.889832 225.342712 925.473755 269.666687 C 946.891663 297.93396 968.312927 326.199097 989.865112 354.36377 C 992.870605 358.291321 994.082764 362.303345 994.075317 367.229614 C 993.964111 440.724548 993.939331 514.219849 994.109558 587.714539 C 994.123352 593.657654 992.272156 597.485413 987.478455 601.08374 C 950.73468 628.665039 914.183594 656.503174 877.591919 684.286804 C 844.314697 709.553772 811.066528 734.858948 777.797058 760.13623 C 734.708313 792.873962 691.603699 825.590942 648.519653 858.334961 C 609.147705 888.257751 569.759705 918.15979 530.487793 948.213379 C 526.766052 951.061523 524.187317 951.015259 520.485657 948.190552 C 482.627594 919.301086 444.620331 890.607239 406.704895 861.792786 C 380.194061 841.645447 353.761017 821.395813 326.994934 800.998779 M 285.778351 217.279541 C 243.615753 272.935059 201.475388 328.607483 159.241196 384.208618 C 156.383987 387.970093 154.922806 391.759521 154.932251 396.556152 C 155.045166 453.882874 155.059647 511.210144 154.911697 568.536743 C 154.898636 573.603149 156.666641 576.827759 160.647705 579.805847 C 182.26329 595.975525 203.720261 612.357483 225.213806 628.690186 C 323.528534 703.39801 421.856079 778.089111 520.085205 852.909363 C 524.403931 856.198975 527.335388 856.420288 531.753967 852.973328 C 551.329285 837.702393 571.199036 822.808655 590.97113 807.790161 C 690.75946 731.99231 790.530884 656.172058 890.402832 580.484497 C 895.113831 576.914307 897.128784 573.12854 897.107056 567.128784 C 896.902405 510.635773 896.930115 454.141541 897.073486 397.648193 C 897.087463 392.150635 895.477905 387.821167 892.183655 383.483521 C 833.931152 306.777588 775.79364 229.984436 717.63147 153.209961 C 711.306885 144.861328 711.398376 144.96228 703.418335 152.087891 C 680.30365 172.727417 657.05127 193.212769 633.963196 213.881836 C 612.491821 233.103577 590.93158 252.236206 569.853271 271.883057 C 556.330139 284.487793 543.534851 297.880249 530.581299 311.084351 C 527.364502 314.363281 525.049072 314.903076 521.607727 311.311279 C 489.88208 278.198975 456.143982 247.222046 421.618408 217.064392 C 396.649475 195.254395 372.050507 173.021301 347.237701 151.031982 C 340.503876 145.064453 340.425934 145.158691 335.118256 152.162964 C 318.813843 173.678894 302.506622 195.192627 285.778351 217.279541 Z"/>
    <path id="path1" fill="#37135c" stroke="none" d="M 285.989441 216.993408 C 302.506622 195.192627 318.813843 173.678894 335.118256 152.162964 C 340.425934 145.158691 340.503876 145.064453 347.237701 151.031982 C 372.050507 173.021301 396.649475 195.254395 421.618408 217.064392 C 456.143982 247.222046 489.88208 278.198975 521.607727 311.311279 C 525.049072 314.903076 527.364502 314.363281 530.581299 311.084351 C 543.534851 297.880249 556.330139 284.487793 569.853271 271.883057 C 590.93158 252.236206 612.491821 233.103577 633.963196 213.881836 C 657.05127 193.212769 680.30365 172.727417 703.418335 152.087891 C 711.398376 144.96228 711.306885 144.861328 717.63147 153.209961 C 775.79364 229.984436 833.931152 306.777588 892.183655 383.483521 C 895.477905 387.821167 897.087463 392.150635 897.073486 397.648193 C 896.930115 454.141541 896.902405 510.635773 897.107056 567.128784 C 897.128784 573.12854 895.113831 576.914307 890.402832 580.484497 C 790.530884 656.172058 690.75946 731.99231 590.97113 807.790161 C 571.199036 822.808655 551.329285 837.702393 531.753967 852.973328 C 527.335388 856.420288 524.403931 856.198975 520.085205 852.909363 C 421.856079 778.089111 323.528534 703.39801 225.213806 628.690186 C 203.720261 612.357483 182.26329 595.975525 160.647705 579.805847 C 156.666641 576.827759 154.898636 573.603149 154.911697 568.536743 C 155.059647 511.210144 155.045166 453.882874 154.932251 396.556152 C 154.922806 391.759521 156.383987 387.970093 159.241196 384.208618 C 201.475388 328.607483 243.615753 272.935059 285.989441 216.993408 M 798.733826 495.500031 C 798.647888 472.006714 798.685974 448.511475 798.331299 425.022156 C 798.282593 421.797119 796.970215 418.100586 795.064514 415.47876 C 786.642578 403.892212 777.746826 392.651489 769.100525 381.226501 C 734.714722 335.789612 700.361633 290.328003 665.986023 244.883484 C 661.962708 239.564636 661.846008 239.491577 656.936462 243.945374 C 614.125732 282.781372 569.251343 319.375488 529.286499 361.298218 C 526.213867 364.521362 524.290527 364.375 521.255676 361.267883 C 510.196045 349.944946 499.300537 338.408081 487.579865 327.7948 C 456.581329 299.725037 425.182251 272.097656 393.94635 244.290039 C 388.598846 239.52948 388.597412 239.512268 384.26358 245.231567 C 341.392517 301.807556 298.546631 358.40271 255.602829 414.923401 C 253.035065 418.302979 251.910934 421.697876 251.921951 425.925171 C 252.027863 466.58374 252.122055 507.243622 251.840027 547.900513 C 251.796188 554.22052 253.675659 558.152649 258.766174 561.998413 C 322.71582 610.311646 386.481567 658.868286 450.297455 707.358582 C 473.910156 725.300476 497.567413 743.184082 521.103149 761.226318 C 524.137573 763.552246 526.393738 763.80835 529.367493 761.273865 C 533.292725 757.928345 537.543152 754.964172 541.656189 751.839233 C 625.373657 688.233582 709.067871 624.597107 792.877319 561.112793 C 797.213501 557.828186 798.931519 554.370667 798.842224 548.988159 C 798.552124 531.496277 798.733215 513.996704 798.733826 495.500031 Z"/>
    <path id="path2" fill="#7d372f" stroke="none" d="M 798.733398 496.000061 C 798.733215 513.996704 798.552124 531.496277 798.842224 548.988159 C 798.931519 554.370667 797.213501 557.828186 792.877319 561.112793 C 709.067871 624.597107 625.373657 688.233582 541.656189 751.839233 C 537.543152 754.964172 533.292725 757.928345 529.367493 761.273865 C 526.393738 763.80835 524.137573 763.552246 521.103149 761.226318 C 497.567413 743.184082 473.910156 725.300476 450.297455 707.358582 C 386.481567 658.868286 322.71582 610.311646 258.766174 561.998413 C 253.675659 558.152649 251.796188 554.22052 251.840027 547.900513 C 252.122055 507.243622 252.027863 466.58374 251.921951 425.925171 C 251.910934 421.697876 253.035065 418.302979 255.602829 414.923401 C 298.546631 358.40271 341.392517 301.807556 384.26358 245.231567 C 388.597412 239.512268 388.598846 239.52948 393.94635 244.290039 C 425.182251 272.097656 456.581329 299.725037 487.579865 327.7948 C 499.300537 338.408081 510.196045 349.944946 521.255676 361.267883 C 524.290527 364.375 526.213867 364.521362 529.286499 361.298218 C 569.251343 319.375488 614.125732 282.781372 656.936462 243.945374 C 661.846008 239.491577 661.962708 239.564636 665.986023 244.883484 C 700.361633 290.328003 734.714722 335.789612 769.100525 381.226501 C 777.746826 392.651489 786.642578 403.892212 795.064514 415.47876 C 796.970215 418.100586 798.282593 421.797119 798.331299 425.022156 C 798.685974 448.511475 798.647888 472.006714 798.733398 496.000061 M 474.305542 631.18689 C 489.251862 642.616028 504.196411 654.047485 519.145447 665.473145 C 525.405762 670.258057 525.414429 670.258057 531.740417 665.447266 C 561.294434 642.971985 590.852478 620.501892 620.396301 598.013306 C 645.970337 578.546509 671.479736 558.99408 697.154358 539.661011 C 700.228821 537.345947 701.210205 534.879761 701.197327 531.268982 C 701.106201 505.772675 701.069397 480.275391 701.232239 454.779785 C 701.25946 450.507324 699.994568 447.121094 697.465332 443.818726 C 687.244202 430.473694 677.15741 417.025757 667.010437 403.62384 C 650.026611 381.192139 633.019958 358.777649 616.067749 336.322144 C 614.240417 333.901611 612.821411 333.059937 610.128418 335.549805 C 583.363831 360.295776 556.447266 384.877441 529.715637 409.658875 C 526.696228 412.458008 524.978821 413.032104 521.627686 409.916626 C 495.417145 385.549927 469.009857 361.394653 442.628052 337.212646 C 438.01712 332.986145 437.541656 333.072632 433.73587 338.092896 C 406.881927 373.516357 379.987091 408.909302 353.326355 444.477661 C 351.321167 447.152832 350.120514 451.102417 350.085144 454.475708 C 349.819336 479.802917 350.030548 505.134857 349.855011 530.463623 C 349.82428 534.900391 351.20752 537.772827 354.79068 540.479309 C 394.509369 570.480225 434.10437 600.644836 474.305542 631.18689 Z"/>
    <path id="path3" fill="#cc6c16" stroke="none" d="M 474.019196 630.976013 C 434.10437 600.644836 394.509369 570.480225 354.79068 540.479309 C 351.20752 537.772827 349.82428 534.900391 349.855011 530.463623 C 350.030548 505.134857 349.819336 479.802917 350.085144 454.475708 C 350.120514 451.102417 351.321167 447.152832 353.326355 444.477661 C 379.987091 408.909302 406.881927 373.516357 433.73587 338.092896 C 437.541656 333.072632 438.01712 332.986145 442.628052 337.212646 C 469.009857 361.394653 495.417145 385.549927 521.627686 409.916626 C 524.978821 413.032104 526.696228 412.458008 529.715637 409.658875 C 556.447266 384.877441 583.363831 360.295776 610.128418 335.549805 C 612.821411 333.059937 614.240417 333.901611 616.067749 336.322144 C 633.019958 358.777649 650.026611 381.192139 667.010437 403.62384 C 677.15741 417.025757 687.244202 430.473694 697.465332 443.818726 C 699.994568 447.121094 701.25946 450.507324 701.232239 454.779785 C 701.069397 480.275391 701.106201 505.772675 701.197327 531.268982 C 701.210205 534.879761 700.228821 537.345947 697.154358 539.661011 C 671.479736 558.99408 645.970337 578.546509 620.396301 598.013306 C 590.852478 620.501892 561.294434 642.971985 531.740417 665.447266 C 525.414429 670.258057 525.405762 670.258057 519.145447 665.473145 C 504.196411 654.047485 489.251862 642.616028 474.019196 630.976013 M 453.665253 521.827148 C 476.076996 538.860107 498.517059 555.856201 520.866943 572.96991 C 523.871216 575.270325 526.15863 576.055847 529.594421 573.412659 C 552.961426 555.436096 576.533142 537.725281 599.86792 519.707458 C 601.799255 518.216187 603.473999 515.121094 603.548523 512.717834 C 603.863159 502.572479 603.726929 492.398376 603.296814 482.254272 C 603.178345 479.460449 602.058777 476.300903 600.397583 474.046997 C 589.725525 459.567139 578.681763 445.361511 567.980164 430.902954 C 565.225891 427.181702 563.240723 427.404175 560.085327 430.360596 C 549.878662 439.923462 539.355408 449.149048 529.175964 458.73999 C 526.314087 461.436279 524.568542 461.307312 521.774597 458.683411 C 511.45816 448.994507 500.840881 439.626587 490.479462 429.984619 C 487.586395 427.292358 485.704742 427.349609 483.296082 430.578735 C 472.440979 445.13147 461.328491 459.493042 450.560425 474.109009 C 448.907074 476.353149 447.888 479.531433 447.746429 482.336792 C 447.285187 491.478729 447.591858 500.658875 447.151917 509.802673 C 446.899811 515.042725 448.495209 518.865601 453.665253 521.827148 Z"/>
    <path id="path4" fill="#f2af1d" stroke="none" d="M 453.378723 521.608215 C 448.495209 518.865601 446.899811 515.042725 447.151917 509.802673 C 447.591858 500.658875 447.285187 491.478729 447.746429 482.336792 C 447.888 479.531433 448.907074 476.353149 450.560425 474.109009 C 461.328491 459.493042 472.440979 445.13147 483.296082 430.578735 C 485.704742 427.349609 487.586395 427.292358 490.479462 429.984619 C 500.840881 439.626587 511.45816 448.994507 521.774597 458.683411 C 524.568542 461.307312 526.314087 461.436279 529.175964 458.73999 C 539.355408 449.149048 549.878662 439.923462 560.085327 430.360596 C 563.240723 427.404175 565.225891 427.181702 567.980164 430.902954 C 578.681763 445.361511 589.725525 459.567139 600.397583 474.046997 C 602.058777 476.300903 603.178345 479.460449 603.296814 482.254272 C 603.726929 492.398376 603.863159 502.572479 603.548523 512.717834 C 603.473999 515.121094 601.799255 518.216187 599.86792 519.707458 C 576.533142 537.725281 552.961426 555.436096 529.594421 573.412659 C 526.15863 576.055847 523.871216 575.270325 520.866943 572.96991 C 498.517059 555.856201 476.076996 538.860107 453.378723 521.608215 Z"/>
</svg>
